<svg xmlns="http://www.w3.org/2000/svg" viewBox="0 0 512 512" width="512" height="512">
  <rect width="512" height="512" rx="64" fill="#0f0f12"/>
  <rect x="20" y="20" width="472" height="472" rx="54" fill="url(#grad1)" stroke="#00d9ff" stroke-width="4"/>
  <defs>
    <linearGradient id="grad1" x1="0%" y1="0%" x2="100%" y2="100%">
      <stop offset="0%" style="stop-color:#1a1a2e"/>
      <stop offset="100%" style="stop-color:#0f0f12"/>
    </linearGradient>
  </defs>
  <!-- Shield -->
  <path d="M256 80 L400 133 V266 C400 346 346 413 256 453 C166 413 112 346 112 266 V133 Z" 
        fill="none" stroke="#00d9ff" stroke-width="10" stroke-linejoin="round"/>
  <!-- Lock body -->
  <rect x="192" y="240" width="128" height="106" rx="16" fill="#00d9ff"/>
  <!-- Lock shackle -->
  <path d="M213 240 V200 C213 165 230 147 256 147 C282 147 299 165 299 200 V240" 
        fill="none" stroke="#00d9ff" stroke-width="16" stroke-linecap="round"/>
  <!-- Keyhole -->
  <circle cx="256" cy="280" r="16" fill="#0f0f12"/>
  <rect x="248" y="280" width="16" height="40" rx="8" fill="#0f0f12"/>
</svg>